<svg xmlns="http://www.w3.org/2000/svg" width="69.484" height="69.469" viewBox="0 0 69.484 69.469">
    <path
        d="M79.562,61.122V55.516a1.331,1.331,0,1,1,2.663,0v5.606a1.331,1.331,0,0,1-2.663,0ZM74,62.162a1.331,1.331,0,0,0,1.849-1.916L71.83,56.362a1.331,1.331,0,0,0-1.849,1.916Zm12.855.373a1.327,1.327,0,0,0,.925-.373l4.024-3.884a1.331,1.331,0,1,0-1.849-1.916l-4.024,3.884a1.331,1.331,0,0,0,.925,2.289Zm20.615,14.629L99.008,87.2a1.331,1.331,0,1,1-2.035-1.717l6.619-7.849H93.382l-8.444,22.12,8.47-10.043a1.331,1.331,0,1,1,2.036,1.717L81.912,107.476a1.332,1.332,0,0,1-2.036,0L54.313,77.164a1.331,1.331,0,0,1-.024-1.688L57.5,71.441A1.331,1.331,0,0,1,59.587,73.1l-1.493,1.874H68.545l4.524-8.033H64.493l-1.459,1.832a1.331,1.331,0,0,1-2.083-1.659l1.859-2.334a1.331,1.331,0,0,1,1.041-.5H97.936a1.331,1.331,0,0,1,1.041.5l8.521,10.7A1.331,1.331,0,0,1,107.475,77.164ZM97.294,66.942H88.719l4.524,8.033h10.451ZM71.6,74.975H90.187l-4.524-8.033H76.125ZM58.2,77.637,76.85,99.758l-8.444-22.12Zm32.336,0H71.257l9.637,25.247Z"
        transform="translate(-69.831 -11.958) rotate(-21)" fill="#f9bb29"></path>
</svg>